<svg xmlns="http://www.w3.org/2000/svg" viewBox="0 0 128 128" role="img" aria-labelledby="title desc">
  <title id="title">TMDB plugin icon</title>
  <desc id="desc">A teal rounded square with a stylized film ticket and play button.</desc>
  <rect x="8" y="8" width="112" height="112" rx="24" fill="#0F766E"/>
  <rect x="26" y="34" width="76" height="60" rx="10" fill="#F0FDFA"/>
  <rect x="32" y="28" width="8" height="12" rx="3" fill="#99F6E4"/>
  <rect x="46" y="28" width="8" height="12" rx="3" fill="#99F6E4"/>
  <rect x="60" y="28" width="8" height="12" rx="3" fill="#99F6E4"/>
  <rect x="74" y="28" width="8" height="12" rx="3" fill="#99F6E4"/>
  <rect x="88" y="28" width="8" height="12" rx="3" fill="#99F6E4"/>
  <rect x="32" y="88" width="8" height="12" rx="3" fill="#99F6E4"/>
  <rect x="46" y="88" width="8" height="12" rx="3" fill="#99F6E4"/>
  <rect x="60" y="88" width="8" height="12" rx="3" fill="#99F6E4"/>
  <rect x="74" y="88" width="8" height="12" rx="3" fill="#99F6E4"/>
  <rect x="88" y="88" width="8" height="12" rx="3" fill="#99F6E4"/>
  <path d="M55 49 80 64 55 79Z" fill="#0F766E"/>
</svg>
